<svg width="24" height="12" viewBox="0 0 24 12" fill="none" xmlns="http://www.w3.org/2000/svg">
<mask id="mask0_239_12740" style="mask-type:alpha" maskUnits="userSpaceOnUse" x="4" y="4" width="16" height="4">
<path fill-rule="evenodd" clip-rule="evenodd" d="M16 6C16 7.1 16.9 8 18 8C19.1 8 20 7.1 20 6C20 4.9 19.1 4 18 4C16.9 4 16 4.9 16 6ZM14 6C14 4.9 13.1 4 12 4C10.9 4 10 4.9 10 6C10 7.1 10.9 8 12 8C13.1 8 14 7.1 14 6ZM8 6C8 4.9 7.1 4 6 4C4.9 4 4 4.9 4 6C4 7.1 4.9 8 6 8C7.1 8 8 7.1 8 6Z" fill="#394157"/>
</mask>
<g mask="url(#mask0_239_12740)">
<rect x="24" y="-6" width="24" height="24" transform="rotate(90 24 -6)" fill="white"/>
</g>
</svg>
