<svg width="9" height="14" viewBox="0 0 9 14" fill="none" xmlns="http://www.w3.org/2000/svg">
    <path d="M0.89169 8.19028L6.39447 13.6833C6.48485 13.7745 6.59238 13.8468 6.71085 13.8961C6.82933 13.9455 6.9564 13.9709 7.08475 13.9709C7.21309 13.9709 7.34017 13.9455 7.45864 13.8961C7.57711 13.8468 7.68464 13.7745 7.77502 13.6833C7.9561 13.5012 8.05774 13.2548 8.05774 12.9979C8.05774 12.7411 7.9561 12.4947 7.77502 12.3125L2.96252 7.45139L7.77503 2.63889C7.9561 2.45673 8.05774 2.21032 8.05774 1.95347C8.05774 1.69663 7.9561 1.45022 7.77503 1.26806C7.68498 1.1762 7.57761 1.10311 7.45912 1.05305C7.34063 1.00298 7.21338 0.976927 7.08475 0.976393C6.95612 0.976927 6.82887 1.00298 6.71038 1.05305C6.59189 1.10311 6.48451 1.1762 6.39447 1.26806L0.89169 6.76111C0.793005 6.85215 0.714247 6.96265 0.660379 7.08563C0.60651 7.20862 0.5787 7.34143 0.5787 7.4757C0.5787 7.60996 0.60651 7.74277 0.660379 7.86576C0.714247 7.98874 0.793005 8.09924 0.89169 8.19028Z" fill="black"/>
</svg>
