<svg width="32" height="32" viewBox="0 0 32 32" fill="none" xmlns="http://www.w3.org/2000/svg">
    <g clip-path="url(#clip0_239_11015)">
        <path d="M29.3694 8.2927C29.0628 8.59934 28.7439 8.84836 28.408 9.04611L22.9534 3.59128C23.1511 3.25559 23.3999 2.93674 23.7068 2.62985C24.2932 2.04343 24.2932 1.08908 23.7065 0.502411C23.1201 -0.0840149 22.1658 -0.0842591 21.5791 0.502411C19.1377 2.94382 19.102 5.89499 19.5293 8.55954C16.4275 7.92014 12.9985 7.64817 10.2612 10.3852C9.02391 11.6228 8.31248 13.0761 8.08641 14.8288C8.0532 15.0859 8.23484 15.3213 8.49192 15.3545C8.74827 15.3877 8.98436 15.206 9.01731 14.9489C9.21605 13.4099 9.83983 12.1343 10.925 11.049C13.447 8.52707 16.633 8.89011 19.71 9.55735C19.8018 10.0171 19.8831 10.3777 19.9727 10.7739C16.9155 10.0786 13.9546 9.58713 11.7217 11.8523C6.73045 16.8506 15.2117 25.3777 9.63231 30.957C9.41185 31.1775 9.05296 31.1775 8.8325 30.957C8.6118 30.7366 8.6118 30.3777 8.8325 30.1572C12.3703 26.6191 9.20921 21.5366 8.96141 16.6706C8.94798 16.4118 8.72947 16.2121 8.46873 16.2258C8.2097 16.239 8.01048 16.4597 8.02366 16.7185C8.07518 17.7278 8.24656 18.7392 8.43528 19.6533C5.77073 19.2263 2.8198 19.2619 0.378388 21.7031C-0.209503 22.2907 -0.209748 23.2427 0.378388 23.8305C0.96628 24.4187 1.91794 24.4187 2.50608 23.8305C2.81272 23.5239 3.13157 23.2751 3.46726 23.0774L8.9221 28.532C8.7241 28.8679 8.47532 29.1867 8.16868 29.4934C7.58201 30.0798 7.58201 31.0344 8.16868 31.6208C8.75511 32.2075 9.70945 32.2075 10.2961 31.6208C12.7375 29.1794 12.7732 26.2283 12.3459 23.5637C15.8865 24.2934 19.0503 24.3017 21.614 21.738C24.3513 19.0007 24.0789 15.5713 23.4395 12.4695C24.3301 12.6111 25.2246 12.6968 26.1252 12.6684C26.3843 12.6601 26.5877 12.4433 26.5796 12.1843C26.5713 11.9253 26.355 11.7209 26.0957 11.73C25.2544 11.7563 24.3357 11.6775 23.2239 11.4814C23.1335 11.0852 23.0457 10.7119 22.9468 10.2827C25.5505 10.8069 28.0288 10.9609 30.0332 8.95652C30.2537 8.73606 30.6123 8.73606 30.833 8.95652C31.0542 9.17746 31.0542 9.53537 30.833 9.75632C29.9548 10.6347 28.9629 11.2051 27.8008 11.4997C27.5496 11.5634 27.3975 11.8186 27.4612 12.07C27.5249 12.3213 27.7803 12.4734 28.0315 12.4096C29.3621 12.0722 30.4956 11.4216 31.4968 10.4201C31.781 10.136 31.9375 9.75827 31.9375 9.35642C31.9375 8.02024 30.3115 7.35056 29.3694 8.2927ZM1.84226 23.1667C1.62107 23.3879 1.2634 23.3879 1.04221 23.1667C0.82126 22.9458 0.821016 22.5881 1.04221 22.3669C2.56247 20.8467 4.3447 20.3894 6.11717 20.3894C6.97434 20.3894 7.82957 20.4963 8.65159 20.6418C8.74119 21.0359 8.8325 21.4233 8.92869 21.8408C6.32493 21.3164 3.84665 21.1623 1.84226 23.1667ZM4.38938 22.6716C5.66306 22.2803 7.1865 22.4299 9.15281 22.8464C9.56956 24.8127 9.71922 26.3362 9.32762 27.6098L4.38938 22.6716ZM11.6675 20.332C11.3096 18.7864 10.9929 17.3449 11.0068 16.0407L15.9585 20.9924C14.6543 21.0063 13.2129 20.6899 11.6675 20.332ZM17.1626 20.8691L11.1301 14.8366C11.2793 14.1247 11.574 13.4636 12.0725 12.8601L19.1389 19.9267C18.5356 20.4255 17.8747 20.7199 17.1626 20.8691ZM19.803 19.2632L12.7363 12.1965C13.3396 11.698 14.0007 11.4033 14.7126 11.2541L20.7451 17.2866C20.5959 17.9985 20.3015 18.6596 19.803 19.2632ZM20.208 11.7912C20.5659 13.3369 20.8823 14.7783 20.8686 16.0825L15.917 11.1308C17.2209 11.1169 18.6626 11.4333 20.208 11.7912ZM20.9502 21.0742C18.4282 23.5962 15.2424 23.2331 12.1653 22.5659C12.0991 22.2358 12.0271 21.8957 11.9026 21.3493C14.999 22.0537 17.8989 22.5256 20.1504 20.2741C25.1084 15.3164 16.6955 6.71359 22.2432 1.16623C22.4636 0.945771 22.8223 0.945526 23.043 1.16623C23.2634 1.38669 23.2634 1.74558 23.043 1.96603C18.0566 6.95236 26.5278 15.4968 20.9502 21.0742ZM22.7227 9.27683C22.3059 7.31052 22.1562 5.78708 22.5479 4.5134L27.4861 9.45163C26.2124 9.84324 24.689 9.69358 22.7227 9.27683Z" fill="#56AEFF"/>
    </g>
    <defs>
        <clipPath id="clip0_239_11015">
            <rect width="32" height="32" fill="white"/>
        </clipPath>
    </defs>
</svg>
