<svg width="21" height="20" viewBox="0 0 21 20" fill="none" xmlns="http://www.w3.org/2000/svg">
<path d="M15.25 0H5.25C2.49 0 0.25 2.23 0.25 4.98V10.96V11.96C0.25 14.71 2.49 16.94 5.25 16.94H6.75C7.02 16.94 7.38 17.12 7.55 17.34L9.05 19.33C9.71 20.21 10.79 20.21 11.45 19.33L12.95 17.34C13.14 17.09 13.44 16.94 13.75 16.94H15.25C18.01 16.94 20.25 14.71 20.25 11.96V4.98C20.25 2.23 18.01 0 15.25 0ZM11.25 11.75H5.25C4.84 11.75 4.5 11.41 4.5 11C4.5 10.59 4.84 10.25 5.25 10.25H11.25C11.66 10.25 12 10.59 12 11C12 11.41 11.66 11.75 11.25 11.75ZM15.25 6.75H5.25C4.84 6.75 4.5 6.41 4.5 6C4.5 5.59 4.84 5.25 5.25 5.25H15.25C15.66 5.25 16 5.59 16 6C16 6.41 15.66 6.75 15.25 6.75Z" fill="#458CFF"/>
</svg>
