<svg width="32" height="32" viewBox="0 0 32 32" fill="none" xmlns="http://www.w3.org/2000/svg">
    <path d="M29.9984 24.7959C29.7257 24.3674 20.9577 10.5891 20.6875 10.1645V5.625C22.2383 5.625 23.5 4.36331 23.5 2.8125C23.5 1.26169 22.2384 0 20.6875 0H11.3125C9.76167 0 8.49999 1.26169 8.49999 2.8125C8.49999 4.36331 9.76167 5.625 11.3125 5.625V10.1645L2.00161 24.7959C0.0134865 27.9202 2.25367 32 5.9563 32H26.0437C29.7469 32 31.9862 27.9196 29.9984 24.7959ZM13.041 10.9408C13.1367 10.7904 13.1875 10.6158 13.1875 10.4375V5.625C13.7053 5.625 14.125 5.20525 14.125 4.6875C14.125 4.16975 13.7053 3.75 13.1875 3.75H11.3125C10.7956 3.75 10.375 3.32944 10.375 2.8125C10.375 2.29556 10.7956 1.875 11.3125 1.875H20.6875C21.2045 1.875 21.625 2.29556 21.625 2.8125C21.625 3.32944 21.2045 3.75 20.6875 3.75H18.8125C18.2948 3.75 17.875 4.16975 17.875 4.6875C17.875 5.20525 18.2948 5.625 18.8125 5.625V10.4375C18.8125 10.6158 18.8634 10.7904 18.9591 10.9408L21.508 14.9462C19.3264 14.4795 17.0055 14.8904 15.0698 16.1809L12.1404 18.1339C10.8409 19.0002 9.30517 19.3671 7.78617 19.1986L13.041 10.9408ZM26.0437 30.125H5.9563C3.73442 30.125 2.39074 27.6768 3.58349 25.8026L6.69361 20.9152C7.29517 21.0478 7.90342 21.1144 8.50905 21.1144C10.152 21.1144 11.774 20.6316 13.1802 19.6941L16.1097 17.7411C18.2632 16.3054 21.0294 16.2684 23.215 17.6289L28.4164 25.8026C29.6095 27.6771 28.2653 30.125 26.0437 30.125Z" fill="#FF84AA"/>
    <path d="M10.375 22.625C8.82419 22.625 7.5625 23.8867 7.5625 25.4375C7.5625 26.9883 8.82419 28.25 10.375 28.25C11.9258 28.25 13.1875 26.9883 13.1875 25.4375C13.1875 23.8867 11.9259 22.625 10.375 22.625ZM10.375 26.375C9.85806 26.375 9.4375 25.9544 9.4375 25.4375C9.4375 24.9206 9.85806 24.5 10.375 24.5C10.8919 24.5 11.3125 24.9206 11.3125 25.4375C11.3125 25.9544 10.892 26.375 10.375 26.375Z" fill="#FF84AA"/>
    <path d="M19.75 18.875C18.1992 18.875 16.9375 20.1367 16.9375 21.6875C16.9375 23.2383 18.1992 24.5 19.75 24.5C21.3008 24.5 22.5625 23.2383 22.5625 21.6875C22.5625 20.1367 21.3009 18.875 19.75 18.875ZM19.75 22.625C19.2331 22.625 18.8125 22.2044 18.8125 21.6875C18.8125 21.1706 19.2331 20.75 19.75 20.75C20.2669 20.75 20.6875 21.1706 20.6875 21.6875C20.6875 22.2044 20.267 22.625 19.75 22.625Z" fill="#FF84AA"/>
    <path d="M16 26.375C16.5178 26.375 16.9375 25.9553 16.9375 25.4375C16.9375 24.9197 16.5178 24.5 16 24.5C15.4822 24.5 15.0625 24.9197 15.0625 25.4375C15.0625 25.9553 15.4822 26.375 16 26.375Z" fill="#FF84AA"/>
    <path d="M23.5 26.375C24.0178 26.375 24.4375 25.9553 24.4375 25.4375C24.4375 24.9197 24.0178 24.5 23.5 24.5C22.9822 24.5 22.5625 24.9197 22.5625 25.4375C22.5625 25.9553 22.9822 26.375 23.5 26.375Z" fill="#FF84AA"/>
    <path d="M19.75 28.25C20.2678 28.25 20.6875 27.8303 20.6875 27.3125C20.6875 26.7947 20.2678 26.375 19.75 26.375C19.2322 26.375 18.8125 26.7947 18.8125 27.3125C18.8125 27.8303 19.2322 28.25 19.75 28.25Z" fill="#FF84AA"/>
</svg>
