<svg width="38" height="38" viewBox="0 0 38 38" fill="none" xmlns="http://www.w3.org/2000/svg">
    <g clip-path="url(#clip0_1_20978)">
        <path d="M22.5897 22.9438H15.3867V26.6937H22.5897V22.9438Z" fill="#ECB79E"/>
        <g style="mix-blend-mode:multiply">
            <path d="M17.3988 25.8005C18.5151 25.7679 19.6063 25.4659 20.5776 24.9207C21.252 24.5534 21.8453 24.0564 22.3226 23.4589C22.4071 23.3452 22.5018 23.2181 22.5897 23.0809V22.9471H15.3867V25.7537C16.0557 25.8126 16.7278 25.8283 17.3988 25.8005Z" fill="#D1D3D4"/>
        </g>
        <path d="M18.9881 2.35486C14.3856 2.48532 10.8721 4.3619 10.8721 10.8045C10.8957 14.6313 11.2474 15.7652 12.3735 20.1138C13.1547 23.1244 17.3007 24.7267 18.8833 24.8304H18.9881H19.0929C20.6722 24.7267 24.8215 23.1311 25.5993 20.1138C26.7254 15.7652 27.0805 14.6212 27.0906 10.7945C27.1075 4.35521 23.594 2.48532 18.9881 2.35486Z" fill="#ECB79E"/>
        <path d="M26.208 13.4606L25.7041 17.2673C27.6824 18.1303 27.9901 13.6479 27.9901 13.6479C27.5336 12.5307 26.208 13.4606 26.208 13.4606Z" fill="#ECB79E"/>
        <path d="M9.74316 13.6479C9.74316 13.6479 10.0509 18.1303 12.0292 17.2673L11.5253 13.4606C11.5253 13.4606 10.1997 12.5307 9.74316 13.6479Z" fill="#ECB79E"/>
        <path d="M22.6505 26.6903L32.383 29.1958C32.383 29.1958 35.7005 29.6975 36.5493 32.6512L38 38.0033H0L1.45074 32.6512C2.29955 29.6975 5.61022 29.1958 5.61022 29.1958L15.3123 26.6903H22.6505Z" fill="#ECB79E"/>
        <path d="M0 38L1.45074 32.6479C2.29955 29.6975 5.61022 29.1958 5.61022 29.1958L15.3123 26.6903H22.6404L32.3729 29.1958C32.3729 29.1958 35.6903 29.6975 36.5391 32.6512L37.9899 38.0033" fill="white"/>
        <path d="M19.6281 26.6903H19.0126H18.989H18.3769L16.5947 29.4701L18.1875 31.2429H18.989H19.0126H19.8141L21.4069 29.4701L19.6281 26.6903Z" fill="#E2EED8"/>
        <g style="mix-blend-mode:multiply">
            <path d="M19.8885 30.9051C19.3733 30.3415 18.9959 29.6683 18.7854 28.9375C18.5749 28.2067 18.537 27.4379 18.6745 26.6903H18.3769L16.5947 29.4801L18.1875 31.2563H19.8141L20.0102 31.0389L19.8885 30.9051Z" fill="#69B22A"/>
        </g>
        <g style="mix-blend-mode:multiply">
            <path d="M22.6002 24.817L18.9717 26.6903L21.3625 30.2528L25.7046 27.6704L22.6002 24.817Z" fill="#BCBEC0"/>
        </g>
        <path d="M22.6002 24.817L18.9717 26.6903L21.4065 29.7811L25.4679 27.4529L22.6002 24.817Z" fill="white"/>
        <g style="mix-blend-mode:multiply">
            <path d="M15.3671 24.817L18.972 26.6903L16.6048 30.2528L12.2627 27.6704L15.3671 24.817Z" fill="#BCBEC0"/>
        </g>
        <path d="M15.3672 24.817L18.9958 26.6903L16.561 29.7811L12.5029 27.4529L15.3672 24.817Z" fill="white"/>
        <path d="M12.5464 27.4128L5.6106 29.1958C5.6106 29.1958 2.28978 29.6975 1.44098 32.6512L-0.00976562 38.0033H38.0004L36.5496 32.6512C35.7008 29.6975 32.3834 29.1958 32.3834 29.1958L25.1263 27.1385L18.9716 37.7357L12.5464 27.4128Z" fill="#69B22A"/>
        <path d="M18.1601 31.2429L17.291 35.0329L18.9717 37.7324L20.5442 35.0295L19.7867 31.2429H18.1601Z" fill="#C4DFAE"/>
        <path d="M12.5468 27.4128L9.2666 28.2558L11.1164 28.9683L9.97337 30.2528L16.5947 38H19.1648L12.5468 27.4128Z" fill="#037D24"/>
        <path d="M25.1264 27.1385L28.738 28.1621L26.8883 28.9683L28.0313 30.2528L21.4099 38H18.8398L25.1264 27.1385Z" fill="#037D24"/>
        <path d="M11.5187 13.6679L11.9245 18.5016C9.78726 12.8149 11.0216 5.39557 11.0216 5.39557C11.6979 2.64926 12.3337 2.18095 13.4327 1.61229C14.5318 1.04363 14.1091 1.14733 15.8439 0.729192C17.5787 0.311058 15.8439 0.729192 18.1806 0.16053C19.6511 -0.151719 21.1867 0.108231 22.4686 0.886411C24.0647 1.81634 25.0623 2.28465 25.0623 2.28465C28.5725 4.96405 26.9696 12.4202 26.9696 12.4202C27.0913 15.5077 25.8908 19.0033 25.8908 19.0033L26.1614 12.7413C26.1614 4.10102 21.7009 4.8637 21.7009 4.8637C19.3338 5.32197 16.4729 4.8637 16.4729 4.8637C16.4729 4.8637 11.123 3.238 11.5187 13.5609" fill="#121F3E"/>
        <path opacity="0.7" d="M12.1338 5.16474C12.1575 5.27513 12.0932 5.33869 12.1947 5.39555C12.2611 4.94805 12.3745 4.5086 12.5328 4.08429C12.8101 4.26826 13.4425 5.32531 13.3918 4.24485C13.6894 4.21474 14.014 4.54256 14.244 4.46897C14.5821 4.35858 14.6261 3.79995 14.8696 3.52231C15.4275 3.91703 15.5053 4.23481 16.0532 3.92707C16.2459 3.81668 16.1783 3.44203 16.4454 3.37178C16.7126 3.30154 16.9087 3.64608 17.1522 3.67619C17.5198 3.67724 17.8853 3.61964 18.2343 3.50559C18.515 3.34168 18.7348 2.43182 19.1914 3.13429C19.8271 2.66932 19.9353 3.70295 20.5204 3.75647C20.5232 3.65912 20.5311 3.56199 20.544 3.46545C20.9059 3.71967 20.9769 3.36509 21.2204 3.38851C21.704 3.43534 21.7986 3.67619 22.1842 3.83006C22.5223 3.96052 23.4286 4.22143 23.804 4.14115C23.804 4.09432 23.8243 4.04749 23.831 4.00066C24.3112 4.43552 24.6798 5.0577 25.2378 5.40893C25.2885 5.36545 25.2818 5.2952 25.3055 5.26844C25.6233 5.69326 25.7349 6.21844 26.2388 6.47936C26.2726 5.47583 24.8625 4.23481 24.3653 3.59925C24.4059 3.67284 24.4262 3.75981 24.4736 3.83675C23.9151 3.30179 23.2735 2.85906 22.5731 2.52548C22.6001 2.63252 22.5933 2.78305 22.6272 2.89009C22.4209 2.40506 20.8585 1.98024 20.3716 1.83305C20.3716 1.94678 20.3378 2.09397 20.3479 2.21104C20.3208 2.18763 19.932 1.93006 19.888 1.95682C20.03 1.86985 19.2827 2.24784 19.5803 2.21104C19.5803 2.21104 19.3909 2.41175 19.2658 2.43182C19.1406 2.45189 18.7145 2.09731 18.5658 2.06721C18.5658 2.16087 18.5421 2.26457 18.5421 2.35823C18.4305 2.27795 18.1464 2.20101 18.0179 2.06386C18.0179 2.18094 17.9841 2.32478 17.9909 2.43851C17.768 2.18521 17.4754 2.00156 17.1488 1.90999C17.186 2.09062 17.1488 2.2445 17.2266 2.42513C17.0677 2.10735 16.8276 1.96685 16.5942 2.2077C16.2561 1.9033 15.5797 1.41492 15.4952 2.12742C15.4005 2.12742 15.3565 2.05717 15.2686 2.06721C14.971 2.45523 14.5923 2.17425 14.2541 2.06721C14.2947 2.47865 14.2541 3.01721 13.7671 2.84326C13.7367 2.93358 13.713 3.04062 13.6792 3.13763C13.6126 3.09126 13.5425 3.04989 13.4696 3.01386C13.2024 3.27478 12.7357 3.26474 12.3705 3.46879C12.3705 4.08094 12.2014 4.59943 12.198 5.24168" fill="#4F5350"/>
        <path d="M27.4904 11.982L26.0228 11.527V11.5672C24.0104 10.9903 21.8737 10.9903 19.8613 11.5672C19.1771 11.7129 18.4693 11.7129 17.785 11.5672C17.6903 11.5371 17.5415 11.4969 17.3487 11.4534C15.5657 11.0415 13.7078 11.0691 11.938 11.5337V11.5036L10.4873 11.7846V13.0357L11.725 13.3702C11.9347 14.7082 12.7395 16.2503 15.3502 15.9793C15.3502 15.9793 18.0014 15.7084 18.0961 13.049C18.1036 12.9019 18.1036 12.7546 18.0961 12.6075C18.1964 12.4968 18.3203 12.4095 18.4589 12.3519C18.5975 12.2944 18.7473 12.268 18.8975 12.2747C19.0476 12.2814 19.1944 12.3211 19.3272 12.3908C19.4599 12.4605 19.5754 12.5585 19.6652 12.6777C19.6652 12.8684 19.6652 13.0122 19.6652 13.0122C19.7599 15.6716 22.4111 15.9459 22.4111 15.9459C24.9575 16.2068 25.7928 14.7483 26.0194 13.4438L27.4498 13.2096L27.4904 11.982ZM17.5009 13.1895C17.4231 15.3605 15.2555 15.5846 15.2555 15.5846C11.5965 15.9592 12.2931 11.9886 12.2931 11.9886C13.943 11.514 15.6955 11.514 17.3454 11.9886C17.4754 12.3752 17.5282 12.783 17.5009 13.1895ZM22.5092 15.5311C22.5092 15.5311 20.3415 15.3103 20.2671 13.136C20.2392 12.733 20.2909 12.3286 20.4193 11.9452C22.0691 11.4698 23.8218 11.4698 25.4716 11.9452C25.4716 11.9452 26.1682 15.9091 22.5193 15.5311H22.5092Z" fill="#231F20"/>
    </g>
    <defs>
        <clipPath id="clip0_1_20978">
            <rect width="38" height="38" fill="white"/>
        </clipPath>
    </defs>
</svg>
