<svg width="48" height="48" viewBox="0 0 48 48" fill="none" xmlns="http://www.w3.org/2000/svg">
<circle cx="24" cy="24" r="24" fill="white"/>
<path d="M28 20C29.6569 20 31 18.6569 31 17C31 15.3431 29.6569 14 28 14C26.3431 14 25 15.3431 25 17C25 18.6569 26.3431 20 28 20Z" stroke="black" stroke-width="2" stroke-linecap="round" stroke-linejoin="round"/>
<path d="M16 27C17.6569 27 19 25.6569 19 24C19 22.3431 17.6569 21 16 21C14.3431 21 13 22.3431 13 24C13 25.6569 14.3431 27 16 27Z" stroke="black" stroke-width="2" stroke-linecap="round" stroke-linejoin="round"/>
<path d="M28 34C29.6569 34 31 32.6569 31 31C31 29.3431 29.6569 28 28 28C26.3431 28 25 29.3431 25 31C25 32.6569 26.3431 34 28 34Z" stroke="black" stroke-width="2" stroke-linecap="round" stroke-linejoin="round"/>
<path d="M18.5898 25.51L25.4198 29.49" stroke="black" stroke-width="2" stroke-linecap="round" stroke-linejoin="round"/>
<path d="M25.4098 18.51L18.5898 22.49" stroke="black" stroke-width="2" stroke-linecap="round" stroke-linejoin="round"/>
</svg>
