<svg width="32" height="32" viewBox="0 0 32 32" fill="none" xmlns="http://www.w3.org/2000/svg">
    <g clip-path="url(#clip0_239_11039)">
        <path d="M29.375 11.25H20.5847C20.6125 10.9417 20.6277 10.6294 20.6277 10.3137C20.6277 4.62671 16.0007 0 10.3137 0C8.5022 0 6.72021 0.476562 5.1604 1.37793C4.86157 1.55054 4.75928 1.93286 4.93188 2.23169C5.10474 2.53076 5.48706 2.63281 5.78589 2.46021C7.15576 1.66846 8.72144 1.25 10.3137 1.25C15.3115 1.25 19.3777 5.31592 19.3777 10.3137C19.3777 15.3115 15.3115 19.3777 10.3137 19.3777C8.22168 19.3777 6.25635 18.6846 4.63013 17.3735C4.46704 17.2422 4.25098 17.2029 4.0542 17.2632L2.39526 17.697L3.04517 16.2688C3.13867 16.0637 3.11426 15.8245 2.98169 15.6421C1.84888 14.0862 1.25 12.2437 1.25 10.3137C1.25 8.71729 1.67065 7.14771 2.46655 5.7749C2.63965 5.47607 2.53784 5.09375 2.23926 4.92065C1.94067 4.74756 1.55835 4.84912 1.38501 5.14795C0.479004 6.71094 0 8.49731 0 10.3137C0 12.3862 0.607178 14.3708 1.75952 16.0762L0.713135 18.3752C0.613037 18.5947 0.648438 18.8521 0.803711 19.0366C0.958984 19.2212 1.20654 19.2998 1.43994 19.2388L4.0979 18.5439C5.87964 19.8899 8.07422 20.6277 10.3137 20.6277C10.8013 20.6277 11.2805 20.5928 11.75 20.5271V26C11.75 27.4473 12.9275 28.625 14.3748 28.625H23.2144L27.1667 31.8586C27.2805 31.9519 27.4209 31.9998 27.5625 31.9998C27.6536 31.9998 27.7449 31.98 27.8301 31.9397C28.0483 31.8362 28.1875 31.6165 28.1875 31.3748V28.625H29.375C30.8225 28.625 32 27.4473 32 26V13.875C32 12.4275 30.8225 11.25 29.375 11.25ZM30.75 26C30.75 26.7581 30.1333 27.375 29.375 27.375H27.5625C27.2173 27.375 26.9375 27.6548 26.9375 28V30.0559L23.8506 27.5303C23.6804 27.375 23.5315 27.375 23.1968 27.375H14.3748C13.6167 27.375 13 26.7581 13 26V20.272C16.697 19.2737 19.5774 16.2673 20.3936 12.5H29.375C30.1333 12.5 30.75 13.1167 30.75 13.875V26Z" fill="#5CD54F"/>
        <path d="M24.9851 21.7878C25.197 21.688 25.344 21.4729 25.344 21.2229C25.344 20.8779 25.0642 20.5979 24.719 20.5979H24.4631L22.4475 16.0042C22.3476 15.7769 22.123 15.6301 21.875 15.6301C21.6269 15.6301 21.4023 15.7769 21.3027 16.0042L19.2871 20.5979H19.0312C18.686 20.5979 18.4062 20.8779 18.4062 21.2229C18.4062 21.4729 18.5532 21.688 18.7651 21.7878L18.0144 23.4988C17.8757 23.8149 18.0195 24.1836 18.3354 24.3223C18.6516 24.4609 19.0202 24.3171 19.1589 24.001L20.1037 21.8479H23.6465L24.5913 24.001C24.6941 24.2354 24.9233 24.375 25.164 24.375C25.2478 24.375 25.333 24.3582 25.4148 24.3223C25.7307 24.1836 25.8747 23.8149 25.7358 23.4988L24.9851 21.7878ZM20.6521 20.5979L21.875 17.8108L23.0979 20.5979H20.6521Z" fill="#5CD54F"/>
        <path d="M3.46265 4.0874C3.62695 4.0874 3.78809 4.02051 3.90454 3.9043C4.02075 3.78809 4.08765 3.62695 4.08765 3.4624C4.08765 3.2981 4.02075 3.13696 3.90454 3.02051C3.78809 2.9043 3.62695 2.8374 3.46265 2.8374C3.29761 2.8374 3.13696 2.9043 3.02075 3.02051C2.90454 3.13696 2.83765 3.2981 2.83765 3.4624C2.83765 3.62695 2.90454 3.78809 3.02075 3.9043C3.13696 4.02075 3.2981 4.0874 3.46265 4.0874Z" fill="#5CD54F"/>
        <path d="M6.58299 14.1174C6.28025 14.2834 6.16941 14.6633 6.33543 14.9661C6.4492 15.1733 6.66331 15.2908 6.88401 15.2908C6.98557 15.2908 7.0886 15.2659 7.18406 15.2136C8.57786 14.4492 9.65013 13.2603 10.2773 11.8582C10.9048 13.2603 11.9768 14.4492 13.3706 15.2136C13.466 15.2659 13.5691 15.2908 13.6706 15.2908C13.8913 15.2908 14.1054 15.1733 14.2192 14.9661C14.3852 14.6633 14.2744 14.2834 13.9717 14.1174C12.3401 13.2227 11.2419 11.6235 10.9692 9.81665H13.7441C14.0893 9.81665 14.3691 9.53687 14.3691 9.19165C14.3691 8.84644 14.0893 8.56665 13.7441 8.56665H10.9023V5.96216C10.9023 5.61694 10.6225 5.33716 10.2773 5.33716C9.93211 5.33716 9.65232 5.61694 9.65232 5.96216V8.56665H7.39451C7.0493 8.56665 6.76951 8.84644 6.76951 9.19165C6.76951 9.53687 7.0493 9.81665 7.39451 9.81665H9.58543C9.31272 11.6235 8.21458 13.2229 6.58299 14.1174Z" fill="#5CD54F"/>
    </g>
    <defs>
        <clipPath id="clip0_239_11039">
            <rect width="32" height="32" fill="white"/>
        </clipPath>
    </defs>
</svg>
