<svg width="32" height="32" viewBox="0 0 32 32" fill="none" xmlns="http://www.w3.org/2000/svg">
    <g clip-path="url(#clip0_239_11044)">
        <path d="M26.6668 29.0614C24.5 29.0614 24.0078 27.8114 21.3336 27.8114C18.6719 27.8114 18.1719 29.0614 16.0004 29.0614C16.0003 29.0614 16.0002 29.0614 16 29.0614C15.9998 29.0614 15.9998 29.0614 15.9996 29.0614C13.8281 29.0614 13.3281 27.8114 10.6664 27.8114C7.99219 27.8114 7.5 29.0614 5.33319 29.0614C3.07031 29.0614 2.75 27.8114 0 27.8114V29.6864C2.26562 29.6864 2.60156 30.9364 5.33319 30.9364C8.29688 30.9364 8.23438 29.6864 10.6664 29.6864C12.8516 29.6864 13.3047 30.9364 15.9996 30.9364C15.9997 30.9364 15.9998 30.9364 16 30.9364C16.0002 30.9364 16.0002 30.9364 16.0004 30.9364C18.6953 30.9364 19.1484 29.6864 21.3336 29.6864C23.7656 29.6864 23.7031 30.9364 26.6668 30.9364C29.3984 30.9364 29.7344 29.6864 32 29.6864V27.8114C29.25 27.8114 28.9297 29.0614 26.6668 29.0614Z" fill="#A06AF9"/>
        <path d="M27.6452 2.43446C25.8176 0.606838 22.8438 0.606775 21.0161 2.43446L5.7155 17.7351V23.0384L2.97644 25.7775L4.30225 27.1033L7.04132 24.3642H12.3446L27.6452 9.06359C29.3653 7.3434 29.6049 4.39415 27.6452 2.43446ZM26.3194 7.73771L11.568 22.4892H8.91632L24.9936 6.4119L23.6678 5.08609L7.5905 21.1633V18.5117L22.3419 3.76028C23.4386 2.66365 25.2229 2.66378 26.3194 3.76028C27.3833 4.82415 27.4458 6.61134 26.3194 7.73771Z" fill="#A06AF9"/>
    </g>
    <defs>
        <clipPath id="clip0_239_11044">
            <rect width="32" height="32" fill="white"/>
        </clipPath>
    </defs>
</svg>
