<svg width="24" height="24" viewBox="0 0 24 24" fill="none" xmlns="http://www.w3.org/2000/svg">
<path fill-rule="evenodd" clip-rule="evenodd" d="M10.9999 20C10.9999 19.4477 11.4477 19 11.9999 19L15.1999 19C16.0565 19 16.6388 18.9992 17.0889 18.9624C17.5273 18.9266 17.7515 18.8617 17.9079 18.782C18.2842 18.5903 18.5902 18.2843 18.782 17.908C18.8616 17.7516 18.9266 17.5274 18.9624 17.089C18.9992 16.6389 18.9999 16.0566 18.9999 15.2L18.9999 8.8C18.9999 7.94342 18.9992 7.36113 18.9624 6.91104C18.9266 6.47262 18.8616 6.24842 18.782 6.09202C18.5902 5.71569 18.2842 5.40973 17.9079 5.21799C17.7515 5.1383 17.5273 5.07337 17.0889 5.03755C16.6388 5.00078 16.0565 5 15.1999 5L11.9999 5C11.4477 5 10.9999 4.55228 10.9999 4C10.9999 3.44772 11.4477 3 11.9999 3L15.2413 3C16.0462 2.99999 16.7106 2.99998 17.2518 3.04419C17.8139 3.09012 18.3306 3.18868 18.8159 3.43597C19.5685 3.81947 20.1805 4.43139 20.564 5.18404C20.8113 5.66937 20.9098 6.18608 20.9557 6.74817C21 7.28937 21 7.95374 20.9999 8.75872V15.2413C21 16.0463 21 16.7106 20.9557 17.2518C20.9098 17.8139 20.8113 18.3306 20.564 18.816C20.1805 19.5686 19.5685 20.1805 18.8159 20.564C18.3306 20.8113 17.8139 20.9099 17.2518 20.9558C16.7106 21 16.0462 21 15.2412 21H11.9999C11.4477 21 10.9999 20.5523 10.9999 20Z" fill="white"/>
<path d="M7.70711 14.2929C8.09763 14.6834 8.09763 15.3166 7.70711 15.7071C7.31658 16.0976 6.68342 16.0976 6.29289 15.7071L3.29289 12.7071C2.90237 12.3166 2.90237 11.6834 3.29289 11.2929L6.29289 8.29289C6.68342 7.90237 7.31658 7.90237 7.70711 8.29289C8.09763 8.68342 8.09763 9.31658 7.70711 9.70711L6.41421 11H15C15.5523 11 16 11.4477 16 12C16 12.5523 15.5523 13 15 13H6.41421L7.70711 14.2929Z" fill="white"/>
</svg>
