<svg width="32" height="32" viewBox="0 0 32 32" fill="none" xmlns="http://www.w3.org/2000/svg">
    <g clip-path="url(#clip0_239_11017)">
        <path d="M8 3.73333V0H3.73333V3.73333H0V8H3.73333V11.7333H8V8H11.7333V3.73333H8ZM10.6667 6.93333H6.93333V10.6667H4.8V6.93333H1.06667V4.8H4.8V1.06667H6.93333V4.8H10.6667V6.93333Z" fill="#FF7065"/>
        <path d="M20.2667 3.73328V7.99994H32.0001V3.73328H20.2667ZM30.9334 6.93328H21.3334V4.79994H30.9334V6.93328Z" fill="#FF7065"/>
        <path d="M20.2667 22.9332V27.1999H32.0001V22.9332H20.2667ZM30.9334 26.1332H21.3334V23.9999H30.9334V26.1332Z" fill="#FF7065"/>
        <path d="M26.1333 18.1333C24.9551 18.1333 24 19.0884 24 20.2666C24 21.4448 24.9551 22.4 26.1333 22.4C27.3115 22.4 28.2667 21.4448 28.2667 20.2666C28.2667 19.0884 27.3115 18.1333 26.1333 18.1333ZM26.1333 21.3333C25.5442 21.3333 25.0667 20.8558 25.0667 20.2666C25.0667 19.6775 25.5442 19.2 26.1333 19.2C26.7225 19.2 27.2 19.6775 27.2 20.2666C27.2 20.8558 26.7225 21.3333 26.1333 21.3333Z" fill="#FF7065"/>
        <path d="M26.1333 27.7333C24.9551 27.7333 24 28.6884 24 29.8666C24 31.0448 24.9551 31.9999 26.1333 31.9999C27.3115 31.9999 28.2667 31.0448 28.2667 29.8666C28.2667 28.6884 27.3115 27.7333 26.1333 27.7333ZM26.1333 30.9333C25.5442 30.9333 25.0667 30.4557 25.0667 29.8666C25.0667 29.2775 25.5442 28.7999 26.1333 28.7999C26.7225 28.7999 27.2 29.2775 27.2 29.8666C27.2 30.4557 26.7225 30.9333 26.1333 30.9333Z" fill="#FF7065"/>
        <path d="M16.5334 15.4667V5.8667H15.4667V15.4667H5.8667V16.5334H15.4667V26.1334H16.5334V16.5334H26.1334V15.4667H16.5334Z" fill="#FF7065"/>
        <path d="M12.4874 21.8667L9.06663 18.4459L6.39997 21.1126L3.73757 18.4502L0.3125 21.7985L2.98343 24.5291L0.3125 27.2001L3.7333 30.6209L6.39997 27.9542L9.06663 30.6209L12.4874 27.2001L9.82077 24.5334L12.4874 21.8667ZM10.9792 27.2001L9.06663 29.1126L6.39997 26.4459L3.7333 29.1126L1.82077 27.2001L4.48317 24.5377L1.82077 21.8134L3.72903 19.9467L6.39997 22.6209L9.06663 19.9542L10.9792 21.8667L8.3125 24.5334L10.9792 27.2001Z" fill="#FF7065"/>
    </g>
    <defs>
        <clipPath id="clip0_239_11017">
            <rect width="32" height="32" fill="white"/>
        </clipPath>
    </defs>
</svg>
