<?xml version="1.0" standalone="no"?>
<!DOCTYPE svg PUBLIC "-//W3C//DTD SVG 20010904//EN"
 "http://www.w3.org/TR/2001/REC-SVG-20010904/DTD/svg10.dtd">
<svg version="1.0" xmlns="http://www.w3.org/2000/svg"
 width="512.000000pt" height="512.000000pt" viewBox="0 0 512.000000 512.000000"
 preserveAspectRatio="xMidYMid meet">

<g transform="translate(0.000000,512.000000) scale(0.100000,-0.100000)"
fill="#000000" stroke="none">
<path d="M700 4609 c-154 -118 -173 -142 -167 -217 5 -64 13 -74 174 -198
l122 -94 450 0 450 0 20 26 c28 36 26 60 -8 95 l-29 29 -357 0 -357 0 7 23
c16 51 17 184 2 236 l-15 51 1499 0 1499 0 0 -155 0 -155 -991 -2 -991 -3 -19
-24 c-25 -30 -24 -76 1 -101 20 -20 29 -20 1258 -18 l1237 3 33 23 c63 46 72
79 72 278 0 171 -1 179 -25 220 -16 28 -39 49 -68 63 l-43 21 -1811 0 -1811 0
-132 -101z m3738 -206 l3 -153 -151 0 -150 0 0 155 0 156 148 -3 147 -3 3
-152z m-3579 86 c18 -53 10 -176 -14 -207 -2 -2 -39 25 -84 59 l-80 62 72 58
c40 32 77 58 84 59 6 0 16 -14 22 -31z"/>
<path d="M595 3806 c-75 -34 -94 -84 -95 -257 l0 -107 -167 -4 c-147 -3 -173
-6 -208 -25 -51 -27 -79 -57 -104 -113 -20 -45 -21 -58 -21 -1370 0 -904 3
-1337 11 -1363 13 -49 73 -115 124 -138 38 -18 139 -19 2425 -19 2286 0 2387
1 2425 19 51 23 111 89 124 138 8 26 11 460 11 1364 l0 1325 -28 55 c-30 60
-85 105 -148 119 -21 5 -103 10 -180 10 l-141 0 -5 140 c-5 152 -10 168 -72
214 -27 21 -38 21 -776 24 -836 3 -833 3 -970 -64 -72 -36 -166 -117 -218
-189 l-22 -30 -22 30 c-86 119 -225 211 -363 240 -99 21 -1534 22 -1580 1z
m1546 -146 c128 -24 244 -115 302 -237 l32 -68 3 -1304 2 -1304 -52 45 c-112
95 -201 143 -335 185 l-88 27 -672 4 -673 3 0 1330 0 1329 714 0 c440 0 734
-4 767 -10z m2320 -812 c0 -610 3 -832 12 -858 23 -67 111 -67 134 0 9 26 12
205 12 668 l1 632 140 0 c146 0 190 -10 204 -45 3 -9 6 -606 6 -1326 l0 -1310
-25 -24 -24 -25 -1116 0 -1116 0 19 27 c59 83 193 184 302 227 109 43 159 46
842 46 724 0 696 -3 740 69 23 36 23 39 23 399 l0 364 -28 24 c-35 30 -59 30
-94 0 l-28 -24 -3 -341 -3 -340 -672 -3 -672 -4 -88 -27 c-133 -41 -232 -97
-345 -193 l-42 -37 2 1304 3 1304 28 59 c57 122 154 206 275 237 61 16 137 18
790 18 l722 1 1 -822z m-3959 -720 l3 -1163 23 -36 c44 -72 16 -69 734 -69
661 0 718 -3 832 -41 110 -37 254 -142 318 -231 l19 -28 -1116 0 -1116 0 -24
25 -25 24 0 1314 c0 1035 3 1316 13 1329 25 32 53 37 194 38 l143 0 2 -1162z"/>
<path d="M901 3254 c-12 -15 -21 -33 -21 -40 0 -26 23 -62 47 -73 17 -8 211
-11 643 -11 432 0 626 3 643 11 24 11 47 47 47 73 0 7 -9 25 -21 40 l-20 26
-649 0 -649 0 -20 -26z"/>
<path d="M901 2804 c-12 -15 -21 -33 -21 -40 0 -26 23 -62 47 -73 17 -8 211
-11 643 -11 432 0 626 3 643 11 24 11 47 47 47 73 0 7 -9 25 -21 40 l-20 26
-649 0 -649 0 -20 -26z"/>
<path d="M901 2354 c-12 -15 -21 -33 -21 -40 0 -26 23 -62 47 -73 34 -16 1252
-16 1286 0 24 11 47 47 47 73 0 7 -9 25 -21 40 l-20 26 -649 0 -649 0 -20 -26z"/>
<path d="M901 1904 c-12 -15 -21 -33 -21 -40 0 -26 23 -62 47 -73 34 -16 1252
-16 1286 0 24 11 47 47 47 73 0 7 -9 25 -21 40 l-20 26 -649 0 -649 0 -20 -26z"/>
<path d="M901 1454 c-12 -15 -21 -33 -21 -40 0 -26 23 -62 47 -73 34 -16 1252
-16 1286 0 24 11 47 47 47 73 0 7 -9 25 -21 40 l-20 26 -649 0 -649 0 -20 -26z"/>
<path d="M2881 3254 c-12 -15 -21 -33 -21 -40 0 -26 23 -62 47 -73 17 -8 211
-11 643 -11 432 0 626 3 643 11 24 11 47 47 47 73 0 7 -9 25 -21 40 l-20 26
-649 0 -649 0 -20 -26z"/>
<path d="M2881 2804 c-12 -15 -21 -33 -21 -40 0 -26 23 -62 47 -73 17 -8 211
-11 643 -11 432 0 626 3 643 11 24 11 47 47 47 73 0 7 -9 25 -21 40 l-20 26
-649 0 -649 0 -20 -26z"/>
<path d="M2881 2354 c-12 -15 -21 -33 -21 -40 0 -26 23 -62 47 -73 34 -16
1252 -16 1286 0 24 11 47 47 47 73 0 7 -9 25 -21 40 l-20 26 -649 0 -649 0
-20 -26z"/>
<path d="M2881 1904 c-12 -15 -21 -33 -21 -40 0 -26 23 -62 47 -73 34 -16
1252 -16 1286 0 24 11 47 47 47 73 0 7 -9 25 -21 40 l-20 26 -649 0 -649 0
-20 -26z"/>
<path d="M2881 1454 c-12 -15 -21 -33 -21 -40 0 -26 23 -62 47 -73 34 -16
1252 -16 1286 0 24 11 47 47 47 73 0 7 -9 25 -21 40 l-20 26 -649 0 -649 0
-20 -26z"/>
</g>
</svg>
