<svg width="24" height="24" viewBox="0 0 24 24" fill="none" xmlns="http://www.w3.org/2000/svg">
<path fill-rule="evenodd" clip-rule="evenodd" d="M2.02264 18.3979L2.74729 15.1369C2.91231 14.3943 3.28569 13.7142 3.82361 13.1762L13.6715 3.32831C15.2336 1.76622 17.7663 1.76621 19.3284 3.32831L20.6715 4.67146C22.2336 6.23355 22.2336 8.76621 20.6715 10.3283L10.8236 20.1762C10.2857 20.7142 9.60552 21.0875 8.8629 21.2526L5.60199 21.9772C3.4585 22.4535 1.54631 20.5414 2.02264 18.3979ZM4.69966 15.5708L3.97501 18.8317C3.81624 19.5462 4.45363 20.1836 5.16813 20.0248L8.42904 19.3002C8.78614 19.2208 9.11436 19.0451 9.37821 18.7925L5.20731 14.6216C4.95472 14.8855 4.77902 15.2137 4.69966 15.5708ZM6.62118 13.2071L10.7928 17.3787L16.3785 11.7929L12.207 7.62131L6.62118 13.2071ZM19.2573 8.9141L17.7928 10.3787L13.6212 6.20709L15.0857 4.74253C15.8668 3.96148 17.1331 3.96148 17.9142 4.74252L19.2573 6.08567C20.0384 6.86672 20.0384 8.13305 19.2573 8.9141Z" fill="#AFB3C1"/>
</svg>
