
<svg width="48" height="54" viewBox="0 0 48 54" fill="none" xmlns="http://www.w3.org/2000/svg">
    <path d="M46.8346 13.8164C44.4672 9.71557 37.997 9.98135 33.3428 10.9323C31.8833 6.30292 28.8551 0 24 0C19.1457 0 16.1173 6.30113 14.6573 10.9323C9.99324 9.97935 3.53106 9.71884 1.1654 13.8164C-1.2144 17.9383 2.29834 23.4431 5.4642 27C2.2995 30.5556 -1.21472 36.061 1.1654 40.1836C3.528 44.2758 9.9906 44.0212 14.6573 43.0677C16.1168 47.6971 19.145 54 24 54C28.8543 54 31.8828 47.6989 33.3428 43.0677C37.9812 44.0154 44.462 44.2933 46.8346 40.1836C49.2144 36.0617 45.7017 30.5569 42.5358 27C45.7005 23.4444 49.2148 17.939 46.8346 13.8164ZM24 2.10938C27.6044 2.10938 30.1747 7.94074 31.2797 11.4158C28.9319 12.0343 26.4788 12.9057 24 14.001C21.5212 12.9057 19.068 12.0343 16.7204 11.4158C17.821 7.95435 20.3911 2.10938 24 2.10938ZM33.4922 27C33.4922 28.7989 33.4094 30.5917 33.2506 32.3451C30.3759 34.3711 27.1966 36.207 24 37.6855C20.8079 36.2091 17.6282 34.3738 14.7495 32.3451C14.5906 30.5917 14.5078 28.7989 14.5078 27C14.5078 25.2011 14.5906 23.4083 14.7495 21.6549C17.6242 19.6289 20.8035 17.793 24 16.3145C27.1921 17.7909 30.3718 19.626 33.2506 21.6549C33.4094 23.4083 33.4922 25.2011 33.4922 27ZM35.4945 23.3245C37.0125 24.5175 38.4044 25.7502 39.6427 27C38.4044 28.2498 37.0125 29.4825 35.4945 30.6755C35.5651 29.4651 35.6016 28.2379 35.6016 27C35.6016 25.7621 35.5651 24.5349 35.4945 23.3245ZM32.9315 35.1141C32.6643 37.0174 32.3054 38.8479 31.8623 40.5579C30.1476 40.1089 28.3694 39.5158 26.5623 38.7915C28.7494 37.696 30.887 36.462 32.9315 35.1141ZM21.4378 38.7915C19.6307 39.5158 17.8525 40.1089 16.1377 40.5579C15.6948 38.8479 15.3358 37.0175 15.0685 35.1141C17.1108 36.4607 19.2482 37.6948 21.4378 38.7915ZM12.5055 30.6755C10.9876 29.4825 9.59562 28.2498 8.35731 27C9.59562 25.7502 10.9875 24.5175 12.5055 23.3245C12.4349 24.5349 12.3985 25.7621 12.3985 27C12.3985 28.2379 12.4349 29.4651 12.5055 30.6755ZM15.0685 18.8859C15.3358 16.9826 15.6947 15.1521 16.1377 13.4421C17.8525 13.8911 19.6307 14.4842 21.4378 15.2085C19.2507 16.304 17.113 17.538 15.0685 18.8859ZM26.5622 15.2085C28.3693 14.4842 30.1475 13.8911 31.8622 13.4421C32.3052 15.1521 32.6642 16.9825 32.9314 18.8859C30.8892 17.5395 28.7518 16.3052 26.5622 15.2085ZM2.99212 14.8711C4.75703 11.8142 10.5767 12.2703 14.0746 12.9655C13.4659 15.3111 13.0152 17.8509 12.7353 20.5058C10.5727 22.0868 8.61202 23.7557 6.9165 25.4593C4.56318 22.7831 1.21697 17.9459 2.99212 14.8711ZM2.99212 39.1289C1.21908 36.0577 4.55485 31.2262 6.9164 28.5407C8.61191 30.2443 10.5726 31.9132 12.7352 33.4942C13.0151 36.1491 13.4658 38.6889 14.0745 41.0345C10.5858 41.7279 4.76009 42.1912 2.99212 39.1289ZM24 51.8906C20.3956 51.8906 17.8253 46.0593 16.7204 42.5842C19.068 41.9657 21.5212 41.0943 24 39.999C26.4788 41.0943 28.9321 41.9657 31.2797 42.5842C30.179 46.0457 27.6089 51.8906 24 51.8906ZM45.0079 39.1289C43.2399 42.1915 37.4132 41.7277 33.9255 41.0345C34.5341 38.6889 34.9848 36.1491 35.2647 33.4942C37.4274 31.9132 39.388 30.2443 41.0835 28.5407C43.4369 31.2169 46.7831 36.0541 45.0079 39.1289ZM35.2647 20.5058C34.9848 17.8509 34.5341 15.3111 33.9255 12.9655C37.4392 12.2673 43.2475 11.8222 45.0079 14.8711C46.781 17.9423 43.4452 22.7738 41.0836 25.4593C39.388 23.7557 37.4274 22.0868 35.2647 20.5058Z" fill="#767DFF"/>
</svg>
