<svg width="24" height="32" viewBox="0 0 24 32" fill="none" xmlns="http://www.w3.org/2000/svg">
    <path d="M22 27H19.9373V25.8437C19.9373 24.6334 19.4908 23.4776 18.6941 22.5838C18.7945 22.4928 18.8931 22.3989 18.9897 22.3023C20.5277 20.7642 21.3748 18.7258 21.3748 16.5625C21.3748 15.4808 21.1639 14.4313 20.7481 13.44C20.7963 13.2224 20.8224 12.9966 20.8224 12.7647C20.8224 11.8355 20.4143 11.0003 19.7685 10.4274L19.9574 10.1002C20.3648 9.39459 20.2596 8.53172 19.7587 7.9446L20.5213 6.62366C20.629 6.62335 20.7375 6.60916 20.8445 6.58047C21.1675 6.49397 21.4371 6.28735 21.6036 5.99879L22.5411 4.37498C22.7138 4.07604 22.6113 3.69379 22.3124 3.52123L16.3585 0.0837361C16.2149 0.000798738 16.0442 -0.0215762 15.8842 0.0212987C15.724 0.0642361 15.5876 0.168923 15.5047 0.312486L14.5672 1.9363C14.3365 2.33592 14.3533 2.81079 14.568 3.18485L13.8049 4.50654C13.5337 4.45635 13.2522 4.46685 12.9773 4.54054C12.4925 4.67041 12.088 4.98016 11.8384 5.41266L8.40086 11.3667C8.15111 11.7992 8.08511 12.3043 8.21498 12.789C8.28867 13.064 8.42036 13.3131 8.59936 13.5228L7.92086 14.698C7.75424 14.9866 7.71017 15.3234 7.79673 15.6464C7.8833 15.9693 8.08986 16.239 8.37842 16.4055L12.1673 18.593C12.3637 18.7064 12.5782 18.7603 12.7902 18.7603C13.2225 18.7603 13.6435 18.5361 13.8748 18.1355L14.5535 16.9598C14.6645 16.9803 14.7771 16.9913 14.8904 16.9913C15.0538 16.9913 15.2186 16.9698 15.381 16.9263C15.8657 16.7964 16.2702 16.4866 16.5199 16.0541L16.7081 15.7282C16.9813 15.8196 17.271 15.8745 17.5717 15.8865C17.6067 16.1095 17.6248 16.3356 17.6248 16.5626C17.6248 17.7244 17.1678 18.8211 16.3382 19.6509C15.5085 20.4806 14.4117 20.9375 13.2498 20.9375H11.0622C10.7171 20.9375 10.4372 21.2173 10.4372 21.5625C10.4372 21.9077 10.7171 22.1875 11.0622 22.1875H13.2498C13.5945 22.1875 13.8748 22.4679 13.8748 22.8125C13.8748 23.1571 13.5945 23.4375 13.2498 23.4375H3.25012C2.90549 23.4375 2.62512 23.1571 2.62512 22.8125C2.62512 22.4679 2.90549 22.1875 3.25012 22.1875H5.43724C5.78236 22.1875 6.06224 21.9077 6.06224 21.5625C6.06224 21.2173 5.78236 20.9375 5.43724 20.9375H3.25012C2.21625 20.9375 1.37512 21.7786 1.37512 22.8125C1.37512 23.8464 2.21625 24.6875 3.25012 24.6875H4.83024V27H2C0.966123 27 0.125 27.8411 0.125 28.875V31.375C0.125 31.7202 0.404874 32 0.749999 32H23.25C23.5951 32 23.875 31.7202 23.875 31.375V28.875C23.875 27.8411 23.0338 27 22 27ZM18.6873 25.8437V27H17.4373V25.8437C17.4373 25.0954 17.0938 24.4258 16.5563 23.9841C16.9538 23.806 17.3371 23.5951 17.7034 23.3531C18.3328 24.0276 18.6873 24.9142 18.6873 25.8437ZM13.2498 24.6875H15.0311C15.6687 24.6875 16.1873 25.2062 16.1873 25.8437V27H11.7052V24.6875H13.2498ZM17.6974 14.6396C16.6635 14.6396 15.8224 13.7985 15.8224 12.7646C15.8224 11.7308 16.6635 10.8897 17.6974 10.8897C18.7313 10.8897 19.5724 11.7308 19.5724 12.7646C19.5724 13.7985 18.7313 14.6396 17.6974 14.6396ZM14.9409 5.03891L15.566 3.95629L19.3549 6.14379L18.7298 7.22641L14.9409 5.03891ZM16.2747 1.47873L21.1461 4.29123L20.5211 5.37373L15.6497 2.56123L16.2747 1.47873ZM9.00342 15.323L9.62848 14.2405L13.4173 16.428L12.7923 17.5105L9.00342 15.323ZM15.4374 15.4291C15.3547 15.5725 15.2197 15.6754 15.0575 15.7189C14.8953 15.7623 14.7271 15.7407 14.5837 15.6579L9.71279 12.8457C9.71261 12.8456 9.71248 12.8455 9.71229 12.8454C9.71223 12.8453 9.71211 12.8453 9.71198 12.8453C9.56873 12.7625 9.46592 12.6276 9.42248 12.4655C9.37905 12.3033 9.40067 12.135 9.48348 11.9917L12.921 6.03766C13.0037 5.89429 13.1387 5.79141 13.3009 5.74791C13.463 5.70448 13.6313 5.7261 13.7747 5.80891L18.6462 8.62141C18.9445 8.79372 19.0472 9.17672 18.8749 9.47516L18.6868 9.80103C18.3756 9.69684 18.0432 9.63959 17.6975 9.63959C15.9743 9.63959 14.5725 11.0415 14.5725 12.7646C14.5725 13.6938 14.9805 14.529 15.6263 15.1019L15.4374 15.4291ZM14.9074 21.9374C15.77 21.6703 16.5622 21.1946 17.2221 20.5348C18.2879 19.4689 18.8748 18.0583 18.8748 16.5626C18.8748 16.2684 18.8512 15.9753 18.8054 15.6861C19.234 15.523 19.6175 15.2683 19.9322 14.946C20.0601 15.4717 20.1248 16.0121 20.1248 16.5625C20.1248 18.3919 19.4078 20.1164 18.1057 21.4184C17.2514 22.2728 16.2152 22.8752 15.0869 23.1885C15.1117 23.067 15.1248 22.9413 15.1248 22.8125C15.1248 22.4966 15.046 22.1989 14.9074 21.9374ZM6.08024 24.6875H10.4552V27H6.08024V24.6875ZM22.625 30.75H1.375V28.875C1.375 28.5304 1.65537 28.25 2 28.25H22C22.3446 28.25 22.625 28.5304 22.625 28.875V30.75Z" fill="#FFB46D"/>
    <path d="M8.87501 21.5626C8.87501 21.2174 8.59513 20.9376 8.25001 20.9376H8.24951C7.90438 20.9376 7.62476 21.2174 7.62476 21.5626C7.62476 21.9078 7.90482 22.1876 8.25001 22.1876C8.59519 22.1876 8.87501 21.9078 8.87501 21.5626V21.5626Z" fill="#FFB46D"/>
</svg>
