<svg width="8" height="9" viewBox="0 0 8 9" fill="none" xmlns="http://www.w3.org/2000/svg">
    <path d="M1.91658 8.0583C1.8733 8.0788 1.82514 8.08679 1.77756 8.08135C1.72997 8.07592 1.68486 8.05727 1.64732 8.02754C1.60978 7.9978 1.58131 7.95815 1.56512 7.91307C1.54894 7.868 1.54569 7.81929 1.55575 7.77247L1.95658 5.48496L0.249912 3.86246C0.214109 3.82824 0.188446 3.78479 0.175746 3.73692C0.163046 3.68904 0.163803 3.63859 0.177933 3.59112C0.192063 3.54365 0.219018 3.50099 0.255831 3.46785C0.292644 3.43472 0.337886 3.41238 0.386579 3.4033L2.75491 3.06997L3.81324 0.974132C3.83389 0.93231 3.86583 0.897098 3.90544 0.872477C3.94506 0.847856 3.99077 0.834808 4.03741 0.834808C4.08405 0.834808 4.12977 0.847856 4.16938 0.872477C4.20899 0.897098 4.24093 0.93231 4.26158 0.974132L5.31741 3.0633L7.68575 3.39663C7.73444 3.40571 7.77968 3.42805 7.81649 3.46119C7.85331 3.49433 7.88026 3.53698 7.89439 3.58445C7.90852 3.63193 7.90928 3.68238 7.89658 3.73025C7.88388 3.77813 7.85821 3.82157 7.82241 3.8558L6.11908 5.48496L6.51991 7.77247C6.52996 7.81929 6.52672 7.868 6.51053 7.91307C6.49435 7.95815 6.46588 7.9978 6.42834 8.02754C6.3908 8.05727 6.34568 8.07592 6.2981 8.08135C6.25052 8.08679 6.20236 8.0788 6.15908 8.0583L4.03658 6.96746L1.91658 8.0583Z" fill="#FFBB00"/>
</svg>
