<svg width="34" height="41" viewBox="0 0 34 41" fill="none" xmlns="http://www.w3.org/2000/svg">
    <g clip-path="url(#clip0_1_20955)">
        <path fill-rule="evenodd" clip-rule="evenodd" d="M17.0016 27C21.2289 26.9981 25.3067 28.4284 28.4466 31.0144C31.5864 33.6004 33.5651 37.1583 34 41H0C0.434975 37.1578 2.41415 33.5995 5.55467 31.0134C8.69518 28.4273 12.7738 26.9973 17.0016 27Z" fill="#06307C"/>
        <path fill-rule="evenodd" clip-rule="evenodd" d="M13.6758 17.0437H20.3201V28.1585C20.3201 30.282 18.6483 33.7548 16.9996 34.5134C15.2589 33.8139 13.6758 30.1949 13.6758 28.1585V17.0437Z" fill="#FFCCBA"/>
        <path opacity="0.1" fill-rule="evenodd" clip-rule="evenodd" d="M13.6758 16.3752H20.3201V24.4929C18.6346 26.3789 16.2642 27.599 13.6758 27.9129V16.3752Z" fill="black"/>
        <path fill-rule="evenodd" clip-rule="evenodd" d="M8.5366 18.5267C6.41817 12.5232 8.02752 2.81677 16.9216 2.59292C25.8158 2.36907 27.5007 12.3957 25.4808 18.449C22.8335 26.3926 11.3218 26.4175 8.5366 18.5267Z" fill="#FFCCBA"/>
        <path fill-rule="evenodd" clip-rule="evenodd" d="M7.70491 13.7326C10.1386 13.801 9.67555 10.6858 10.7364 10.2598C11.7973 9.83389 12.6052 10.6143 14.4773 10.1883C16.3494 9.76238 21.0461 5.58694 22.7047 6.86165C24.3633 8.13635 24.429 13.5461 26.2453 13.5461C26.4062 10.549 28.2356 1.96491 23.516 3.65623C19.6864 -1.94004 13.3344 2.4437 11.1305 2.41261C9.35039 2.39085 8.4439 1.1348 8.86102 0C7.35348 0.643571 6.79185 1.66955 8.31581 3.75261C7.55712 4.20964 6.51925 3.5101 5.93463 2.30069C4.87377 3.37953 5.44526 5.42838 7.28451 6.00355C7.17613 8.95714 6.96921 11.7273 7.70491 13.7326Z" fill="#121F3E"/>
        <path fill-rule="evenodd" clip-rule="evenodd" d="M7.45556 16.9225C8.44087 16.9225 9.27182 15.8623 9.27182 14.5596C9.27182 13.257 8.4573 12.1968 7.45556 12.1968C6.45382 12.1968 5.64258 13.257 5.64258 14.5596C5.64258 15.8623 6.4571 16.9225 7.45556 16.9225Z" fill="#FFCCBA"/>
        <path fill-rule="evenodd" clip-rule="evenodd" d="M26.492 16.9225C27.4774 16.9225 28.3083 15.8623 28.3083 14.5596C28.3083 13.257 27.4905 12.1968 26.492 12.1968C25.4936 12.1968 24.6758 13.257 24.6758 14.5596C24.6758 15.8623 25.4903 16.9225 26.492 16.9225Z" fill="#FFCCBA"/>
        <path d="M20.4684 14.1586C20.8112 14.1586 21.0892 13.8899 21.0892 13.5585C21.0892 13.2271 20.8112 12.9585 20.4684 12.9585C20.1256 12.9585 19.8477 13.2271 19.8477 13.5585C19.8477 13.8899 20.1256 14.1586 20.4684 14.1586Z" fill="#1F2126"/>
        <path d="M13.4821 14.1586C13.8249 14.1586 14.1028 13.8899 14.1028 13.5585C14.1028 13.2271 13.8249 12.9585 13.4821 12.9585C13.1392 12.9585 12.8613 13.2271 12.8613 13.5585C12.8613 13.8899 13.1392 14.1586 13.4821 14.1586Z" fill="#1F2126"/>
        <path d="M17.0919 13.0829C18.0608 14.9483 19.2596 16.8697 17.0098 17.2614" stroke="#E5B7A7" stroke-linecap="round" stroke-linejoin="round"/>
        <path fill-rule="evenodd" clip-rule="evenodd" d="M22.1368 11.8672C22.2027 11.8931 22.2578 11.9386 22.294 11.9968C22.3301 12.055 22.3452 12.1228 22.3371 12.1899C22.3289 12.257 22.2979 12.3197 22.2487 12.3686C22.1996 12.4175 22.1349 12.45 22.0645 12.461C21.0601 12.3812 20.0492 12.4136 19.0527 12.5574C19.0001 12.5689 18.9455 12.5698 18.8924 12.5599C18.8394 12.5501 18.7892 12.5298 18.745 12.5003C18.7008 12.4708 18.6637 12.4329 18.6361 12.3889C18.6084 12.345 18.5909 12.296 18.5846 12.2452C18.5784 12.1944 18.5835 12.1429 18.5996 12.0941C18.6158 12.0453 18.6427 12.0002 18.6785 11.9619C18.7143 11.9236 18.7582 11.8929 18.8075 11.8717C18.8567 11.8506 18.91 11.8395 18.9641 11.8392C20.0193 11.7335 21.0838 11.7429 22.1368 11.8672Z" fill="#825E57"/>
        <path fill-rule="evenodd" clip-rule="evenodd" d="M11.8108 11.8672C11.745 11.8931 11.6898 11.9386 11.6537 11.9968C11.6175 12.055 11.6024 12.1228 11.6106 12.1899C11.6187 12.257 11.6497 12.3197 11.6989 12.3686C11.7481 12.4175 11.8127 12.45 11.8831 12.461C12.8875 12.3812 13.8984 12.4136 14.8949 12.5574C14.9475 12.5689 15.0022 12.5698 15.0552 12.5599C15.1082 12.5501 15.1585 12.5298 15.2026 12.5003C15.2468 12.4708 15.2839 12.4329 15.3116 12.3889C15.3392 12.345 15.3567 12.296 15.363 12.2452C15.3693 12.1944 15.3641 12.1429 15.348 12.0941C15.3318 12.0453 15.3049 12.0002 15.2691 11.9619C15.2333 11.9236 15.1894 11.8929 15.1402 11.8717C15.091 11.8506 15.0376 11.8395 14.9836 11.8392C13.9283 11.7335 12.8638 11.7429 11.8108 11.8672Z" fill="#825E57"/>
        <path d="M7.06445 13.2911C7.8757 12.9522 8.67709 13.6424 8.50302 15.1752" stroke="#E5B7A7" stroke-width="1.44" stroke-linecap="round" stroke-linejoin="round"/>
        <path d="M7.27152 15.7939C7.07445 15.0912 7.66564 14.516 8.48674 14.715" stroke="#E5B7A7" stroke-width="1.44" stroke-linecap="round" stroke-linejoin="round"/>
        <path d="M27.1257 13.2911C26.3144 12.9522 25.513 13.6424 25.6871 15.1752" stroke="#E5B7A7" stroke-width="1.44" stroke-linecap="round" stroke-linejoin="round"/>
        <path d="M26.9193 15.7939C27.1164 15.0912 26.5252 14.516 25.7041 14.715" stroke="#E5B7A7" stroke-width="1.44" stroke-linecap="round" stroke-linejoin="round"/>
        <path fill-rule="evenodd" clip-rule="evenodd" d="M13.4131 18.2345C15.3082 19.2916 18.6386 19.2916 20.5336 18.2345C19.5779 20.0066 14.694 20.1683 13.4131 18.2345Z" fill="#D9A796"/>
        <path fill-rule="evenodd" clip-rule="evenodd" d="M15.4141 19.9133C16.421 20.2648 17.5273 20.2648 18.5342 19.9133C18.1171 20.7808 15.9757 20.8585 15.4141 19.9133Z" fill="#D9A796"/>
        <path fill-rule="evenodd" clip-rule="evenodd" d="M17.0002 34.5134C15.358 32.5268 13.4498 30.1048 13.6764 26.946C10.0898 27.6176 9.00598 30.4966 8.5166 31.7961C10.0011 30.9443 11.4725 30.1981 12.4841 30.3194C12.7699 31.4542 14.6814 33.5652 17.0002 34.5134Z" fill="#144BD6"/>
        <path fill-rule="evenodd" clip-rule="evenodd" d="M17 34.5134C18.6422 32.5268 20.5471 30.1048 20.3205 26.946C23.9071 27.6176 24.9909 30.4966 25.4803 31.7961C23.9958 30.9443 22.5243 30.1981 21.5128 30.3194C21.227 31.4542 19.3155 33.5652 17 34.5134Z" fill="#144BD6"/>
        <path fill-rule="evenodd" clip-rule="evenodd" d="M30 33C32.2492 35.2759 33.6413 38.0602 34 41H26C26.3619 38.0609 27.7537 35.2773 30 33Z" fill="#144BD6"/>
        <path fill-rule="evenodd" clip-rule="evenodd" d="M8 41H0C0.358656 38.0602 1.75082 35.2759 4 33C6.24631 35.2773 7.63811 38.0609 8 41Z" fill="#144BD6"/>
    </g>
    <defs>
        <clipPath id="clip0_1_20955">
            <rect width="34" height="41" fill="white"/>
        </clipPath>
    </defs>
</svg>
